<svg width="16" height="16" viewBox="0 0 150 150" xmlns="http://www.w3.org/2000/svg">
  <defs>
    <linearGradient id="cyberGradient16" x1="0%" y1="0%" x2="100%" y2="100%">
      <stop offset="0%" style="stop-color:#00d9ff;stop-opacity:1" />
      <stop offset="50%" style="stop-color:#ff006e;stop-opacity:1" />
      <stop offset="100%" style="stop-color:#8b5cf6;stop-opacity:1" />
    </linearGradient>
    <radialGradient id="bgGradient16" cx="50%" cy="50%" r="50%">
      <stop offset="0%" style="stop-color:#1a1a2e;stop-opacity:1" />
      <stop offset="100%" style="stop-color:#0a0a0f;stop-opacity:1" />
    </radialGradient>
  </defs>
  
  <circle cx="75" cy="75" r="70" fill="url(#bgGradient16)" stroke="url(#cyberGradient16)" stroke-width="3"/>
  
  <!-- Simplified HKC for small size -->
  <g transform="translate(30, 45)" fill="url(#cyberGradient16)">
    <rect x="0" y="0" width="8" height="60"/>
    <rect x="0" y="26" width="25" height="8"/>
    <rect x="17" y="0" width="8" height="60"/>
  </g>
  
  <g transform="translate(65, 45)" fill="url(#cyberGradient16)">
    <rect x="0" y="0" width="8" height="60"/>
    <polygon points="8,0 25,0 25,8 16,30 8,30"/>
    <polygon points="8,30 16,30 25,52 25,60 8,60"/>
  </g>
  
  <g transform="translate(95, 45)" fill="url(#cyberGradient16)">
    <path d="M25 8 Q8 8 8 30 Q8 52 25 52 L25 44 Q16 44 16 30 Q16 16 25 16 Z"/>
  </g>
</svg>