<svg width="32" height="32" viewBox="0 0 150 150" xmlns="http://www.w3.org/2000/svg">
  <defs>
    <linearGradient id="cyberGradient32" x1="0%" y1="0%" x2="100%" y2="100%">
      <stop offset="0%" style="stop-color:#00d9ff;stop-opacity:1" />
      <stop offset="50%" style="stop-color:#ff006e;stop-opacity:1" />
      <stop offset="100%" style="stop-color:#8b5cf6;stop-opacity:1" />
    </linearGradient>
    <radialGradient id="bgGradient32" cx="50%" cy="50%" r="50%">
      <stop offset="0%" style="stop-color:#1a1a2e;stop-opacity:1" />
      <stop offset="100%" style="stop-color:#0a0a0f;stop-opacity:1" />
    </radialGradient>
    <filter id="glow32" x="-50%" y="-50%" width="200%" height="200%">
      <feGaussianBlur stdDeviation="1" result="coloredBlur"/>
      <feMerge> 
        <feMergeNode in="coloredBlur"/>
        <feMergeNode in="SourceGraphic"/>
      </feMerge>
    </filter>
  </defs>
  
  <circle cx="75" cy="75" r="70" fill="url(#bgGradient32)" stroke="url(#cyberGradient32)" stroke-width="3" filter="url(#glow32)">
    <animate attributeName="opacity" values="1;0.8;1" dur="3s" repeatCount="indefinite"/>
  </circle>
  
  <g transform="translate(30, 45)" fill="url(#cyberGradient32)" filter="url(#glow32)">
    <rect x="0" y="0" width="8" height="60">
      <animate attributeName="opacity" values="1;0.7;1" dur="2s" repeatCount="indefinite"/>
    </rect>
    <rect x="0" y="26" width="25" height="8"/>
    <rect x="17" y="0" width="8" height="60">
      <animate attributeName="opacity" values="1;0.7;1" dur="2s" begin="1s" repeatCount="indefinite"/>
    </rect>
  </g>
  
  <g transform="translate(65, 45)" fill="url(#cyberGradient32)" filter="url(#glow32)">
    <rect x="0" y="0" width="8" height="60"/>
    <polygon points="8,0 25,0 25,8 16,30 8,30">
      <animate attributeName="opacity" values="1;0.6;1" dur="2s" begin="0.5s" repeatCount="indefinite"/>
    </polygon>
    <polygon points="8,30 16,30 25,52 25,60 8,60">
      <animate attributeName="opacity" values="1;0.6;1" dur="2s" begin="1.5s" repeatCount="indefinite"/>
    </polygon>
  </g>
  
  <g transform="translate(95, 45)" fill="url(#cyberGradient32)" filter="url(#glow32)">
    <path d="M25 8 Q8 8 8 30 Q8 52 25 52 L25 44 Q16 44 16 30 Q16 16 25 16 Z">
      <animate attributeName="opacity" values="1;0.5;1" dur="2.5s" repeatCount="indefinite"/>
    </path>
  </g>
</svg>